<svg xmlns="http://www.w3.org/2000/svg" width="24" height="24" viewBox="0 0 24 24">
    <path d="M19.8458333,10 L19.8041667,9.83333333 L12.5,9.83333333 L12.5,12.3333333 L17.425,12.3333333 C17.0275,14.6975 14.9766667,16.5 12.5,16.5 C9.73833333,16.5 7.5,14.2616667 7.5,11.5 C7.5,8.73833333 9.73833333,6.5 12.5,6.5 C13.75,6.5 14.89,6.96166667 15.7666667,7.72083333 L17.5591667,5.96583333 C16.2258333,4.745 14.45,4 12.5,4 C8.3575,4 5,7.3575 5,11.5 C5,15.6425 8.3575,19 12.5,19 C16.6425,19 20,15.6425 20,11.5 C20,10.9858333 19.945,10.485 19.8458333,10 Z"/>
</svg>
